<svg height="48" viewBox="0 0 177 48" width="177" xmlns="http://www.w3.org/2000/svg"><g fill="none" fill-rule="evenodd"><path d="m0 0h177v48h-177z" fill="#fff" fill-opacity=".01"/><path d="m56.17 33.312c.9013333 0 1.7766667-.1646667 2.626-.494s1.599-.8016667 2.249-1.417 1.1743333-1.3606667 1.573-2.236.598-1.8503333.598-2.925-.1993333-2.0496667-.598-2.925-.923-1.6206667-1.573-2.236-1.3996667-1.0876667-2.249-1.417-1.7246667-.494-2.626-.494-1.7766667.1646667-2.626.494-1.599.8016667-2.249 1.417-1.1743333 1.3606667-1.573 2.236-.598 1.8503333-.598 2.925.1993333 2.0496667.598 2.925.923 1.6206667 1.573 2.236 1.3996667 1.0876667 2.249 1.417 1.7246667.494 2.626.494zm0-3.38c-.4853333 0-.936-.0953333-1.352-.286s-.7756667-.455-1.079-.793-.5416667-.728-.715-1.17-.26-.923-.26-1.443.0866667-1.001.26-1.443.4116667-.832.715-1.17.663-.6023333 1.079-.793.8666667-.286 1.352-.286.936.0953333 1.352.286.7756667.455 1.079.793.5416667.728.715 1.17.26.923.26 1.443-.0866667 1.001-.26 1.443-.4116667.832-.715 1.17-.663.6023333-1.079.793-.8666667.286-1.352.286zm14.144 3.328c.2253333 0 .481-.0173333.767-.052s.559-.0866667.819-.156v-3.042c-.1213333.0173333-.234.0303333-.338.039s-.208.013-.312.013c-.468 0-.8406667-.104-1.118-.312s-.416-.572-.416-1.092v-13.858h-3.64v14.118c0 .884.1343333 1.6076667.403 2.171s.611 1.0053333 1.027 1.326.8753333.5416667 1.378.663.9793333.182 1.43.182zm5.564-15.808c.5893333 0 1.1006667-.2166667 1.534-.65s.65-.9446667.65-1.534-.2166667-1.1006667-.65-1.534-.9446667-.65-1.534-.65-1.1006667.2166667-1.534.65-.65.9446667-.65 1.534.2166667 1.1006667.65 1.534.9446667.65 1.534.65zm1.82 15.548v-13.442h-3.64v13.442zm9.698.312c1.248 0 2.3616667-.234 3.341-.702s1.833-1.144 2.561-2.028l-2.158-2.288c-.4853333.5026667-.988.9013333-1.508 1.196s-1.1786667.442-1.976.442c-.5546667 0-1.053-.0953333-1.495-.286s-.819-.455-1.131-.793-.5546667-.728-.728-1.17-.26-.923-.26-1.443.0823333-1.001.247-1.443.3986667-.832.702-1.17.6586667-.6023333 1.066-.793.8536667-.286 1.339-.286c.624 0 1.209.104 1.755.312s1.1223333.5546667 1.729 1.04l1.742-2.808c-.832-.7453333-1.664-1.2523333-2.496-1.521s-1.742-.403-2.73-.403c-.9013333 0-1.7766667.1646667-2.626.494s-1.6033333.8016667-2.262 1.417-1.1873333 1.3606667-1.586 2.236-.598 1.8503333-.598 2.925.1993333 2.0496667.598 2.925.9273333 1.6206667 1.586 2.236 1.4126667 1.0876667 2.262 1.417 1.7246667.494 2.626.494zm14.352 0c.901333 0 1.776667-.1646667 2.626-.494s1.599-.8016667 2.249-1.417 1.174333-1.3606667 1.573-2.236.598-1.8503333.598-2.925-.199333-2.0496667-.598-2.925-.923-1.6206667-1.573-2.236-1.399667-1.0876667-2.249-1.417-1.724667-.494-2.626-.494-1.7766667.1646667-2.626.494-1.599.8016667-2.249 1.417-1.1743333 1.3606667-1.573 2.236-.598 1.8503333-.598 2.925.1993333 2.0496667.598 2.925.923 1.6206667 1.573 2.236 1.3996667 1.0876667 2.249 1.417 1.724667.494 2.626.494zm0-3.38c-.485333 0-.936-.0953333-1.352-.286s-.7756667-.455-1.079-.793-.5416667-.728-.715-1.17-.26-.923-.26-1.443.0866667-1.001.26-1.443.4116667-.832.715-1.17.663-.6023333 1.079-.793.866667-.286 1.352-.286.936.0953333 1.352.286.775667.455 1.079.793.541667.728.715 1.17.26.923.26 1.443-.086667 1.001-.26 1.443-.411667.832-.715 1.17-.663.6023333-1.079.793-.866667.286-1.352.286zm13.442 3.068v-8.32c.398667-.6066667.897-1.1223333 1.495-1.547s1.269667-.637 2.015-.637c.884 0 1.564333.273 2.041.819s.715 1.313.715 2.301v7.384h3.64v-7.566c0-2.0453333-.515667-3.601-1.547-4.667s-2.405-1.599-4.121-1.599c-.901333 0-1.737667.1603333-2.509.481s-1.460333.7843333-2.067 1.391v-1.482h-3.302v13.442zm18.408.286c.762667 0 1.473333-.0996667 2.132-.299s1.230667-.494 1.716-.884.866667-.871 1.144-1.443.416-1.222.416-1.95c0-.5546667-.104-1.0443333-.312-1.469s-.498333-.7973333-.871-1.118-.827667-.598-1.365-.832-1.135333-.429-1.794-.585c-.398667-.104-.784333-.195-1.157-.273s-.702-.169-.988-.273-.511333-.234-.676-.39-.247-.3553333-.247-.598c0-.104.026-.221.078-.351s.151667-.2513333.299-.364.342333-.208.585-.286.554667-.117.936-.117c.658667 0 1.326.117 2.002.351s1.326.585 1.95 1.053l1.326-2.704c-.381333-.2426667-.767-.4593333-1.157-.65s-.806-.3553333-1.248-.494-.918667-.247-1.43-.325-1.087667-.117-1.729-.117c-.849333 0-1.599.1126667-2.249.338s-1.196.5286667-1.638.91-.775667.832-1.001 1.352-.338 1.0746667-.338 1.664c0 .78.164667 1.417.494 1.911s.732333.8883333 1.209 1.183.975.5113333 1.495.65.970667.2513333 1.352.338c.364.0866667.715.1733333 1.053.26s.632667.1906667.884.312.455.2643333.611.429.234.3596667.234.585c0 .3466667-.147333.6413333-.442.884s-.745333.364-1.352.364c-.658667 0-1.408333-.104-2.249-.312s-1.659667-.5286667-2.457-.962l-.988 2.912c.918667.4506667 1.859.78 2.821.988s1.945667.312 2.951.312z" fill="#202327" fill-rule="nonzero"/><rect fill="#ff3c5a" height="14" rx="3" width="30" x="144" y="19"/><g fill-rule="nonzero"><path d="m150.0495 29.054 2.115-4.707h-1.458l-1.242 2.961-1.233-2.961h-1.458l2.115 4.707zm6.102-.054v-1.125h-1.143v-5.211h-.756l-1.728.738v1.098l1.224-.522v3.897h-1.224v1.125zm1.35.081c.204 0 .381-.075.531-.225s.225-.327.225-.531-.075-.381-.225-.531-.327-.225-.531-.225-.381.075-.531.225-.225.327-.225.531.075.381.225.531.327.225.531.225zm3.636.027c.426 0 .7845-.0885 1.0755-.2655s.5265-.4155.7065-.7155.309-.6465.387-1.0395.117-.8055.117-1.2375-.039-.8445-.117-1.2375-.207-.7395-.387-1.0395-.4155-.5385-.7065-.7155-.6495-.2655-1.0755-.2655-.7845.0885-1.0755.2655-.5265.4155-.7065.7155-.309.6465-.387 1.0395-.117.8055-.117 1.2375.039.8445.117 1.2375.207.7395.387 1.0395.4155.5385.7065.7155.6495.2655 1.0755.2655zm0-1.098c-.222 0-.4005-.063-.5355-.189s-.2385-.291-.3105-.495-.12-.435-.144-.693-.036-.519-.036-.783.012-.5295.036-.7965.072-.507.144-.72.1755-.387.3105-.522.3135-.2025.5355-.2025.4005.0675.5355.2025.2385.309.3105.522.12.453.144.72.036.5325.036.7965-.012.525-.036.783-.072.489-.144.693-.1755.369-.3105.495-.3135.189-.5355.189zm3.636 1.071c.204 0 .381-.075.531-.225s.225-.327.225-.531-.075-.381-.225-.531-.327-.225-.531-.225-.381.075-.531.225-.225.327-.225.531.075.381.225.531.327.225.531.225zm3.609.027c.354 0 .6795-.0525.9765-.1575s.5535-.252.7695-.441.3855-.4125.5085-.6705.1845-.543.1845-.855c0-.468-.129-.8505-.387-1.1475s-.588-.5115-.99-.6435c-.042-.012-.0825-.0225-.1215-.0315s-.0795-.0195-.1215-.0315l1.449-1.575v-.855h-4.203v1.125h2.538l-1.548 1.728.198.468h.486c.282 0 .516.0285.702.0855s.333.132.441.225.1845.195.2295.306.0675.2205.0675.3285c0 .162-.033.306-.099.432s-.1545.2325-.2655.3195-.24.153-.387.198-.2985.0675-.4545.0675c-.288 0-.5745-.0615-.8595-.1845s-.5595-.2865-.8235-.4905l-.504 1.008c.324.276.675.477 1.053.603s.765.189 1.161.189z" fill="#fff"/><g transform="translate(8 8)"><circle cx="16" cy="16" fill="#202327" r="16"/><g fill="#fff"><path d="m8.8 25c-.45 0-.8-3.45-.8-3.45 0-.3.35-.5.8-.5.45 0 .8.25.8.5-.05 0-.4 3.45-.8 3.45z"/><path d="m23.95 11.75c1.1-.6 2.05-2.15 1.9-2.9 0-.1-.1-.2-.2-.25-.15-.05-.3 0-.4.1-1.2.95-2.6 1.6-4.1 1.95-1.55.45-5.7.9-6.45 1.05-2.05.4-3.7 1.8-4.45 3.75-.45 1.25-.35 2.75-.35 4-.05.9 0 1.8.1 2.7v.05.05.05l.05.05c.15.1.3.1.45 0 .05-.05.1-.05.1-.1.25-.3.4-.9.65-1.35.6-1 1.65-1 2.9-.5.2.1.45.15.65.2h.05c.45.15.95.25 1.4.25 1.65 0 3.15-1.05 3.75-2.6.25-.55.8-2.35 1-2.8.05-.1.1-.15.2-.2.35-.1.6-.2.7-.2 1.3-.5 2.4-1.45 3.05-2.65.25-.5.45-1.05.55-1.65 0-.05-.05-.1-.1-.05-.5.5-1.1.85-1.75 1 .25.1.25.1.3.05zm-4.7 6.05c-.55 1.55-2.25 2.35-3.8 1.85-1.2-.4-2-1.45-2-2.7 0-.05.05-.1.05-.1.35-.15.7-.25 1.05-.35.05 0 .1 0 .1.05-.1 1 .55 1.85 1.55 2h.1c.05 0 .05 0 .1-.05s0-.05-.05-.1c-.4-.35-.4-.95-.05-1.3s.95-.4 1.3-.05c.15.15.25.35.3.6 0 .05 0 .05.05.05s.05 0 .05-.05c.05-.1.1-.2.15-.3.15-.45.15-.95-.1-1.4 0-.05 0-.1.05-.1.4-.05.75-.1 1.05-.2.05 0 .1 0 .1.05.25.75.25 1.45 0 2.1zm7.75-4.25c0 .2-.15.3-.35.3s-.3-.15-.3-.3c0-.2.15-.3.3-.3s.35.15.35.3z"/></g></g></g></g></svg>