<?xml version="1.0" encoding="UTF-8"?>
<svg width="1440px" height="900px" viewBox="0 0 1440 900" version="1.1" xmlns="http://www.w3.org/2000/svg" xmlns:xlink="http://www.w3.org/1999/xlink">
    <title>topbg</title>
    <g id="topbg" stroke="none" stroke-width="1" fill="none" fill-rule="evenodd">
        <rect fill="#121212" x="0" y="0" width="1440" height="900"></rect>
        <path d="M329.97224,49.0547036 L478.581566,-99.1083484 C483.511414,-104.023392 491.488586,-104.023392 496.418434,-99.1083484 L645.02776,49.0547036 C649.968111,53.9802185 649.980138,61.9780829 645.054623,66.9184337 C645.045682,66.9274014 645.036728,66.9363556 645.02776,66.9452964 L496.418434,215.108348 C491.488586,220.023392 483.511414,220.023392 478.581566,215.108348 L329.97224,66.9452964 C325.031889,62.0197815 325.019862,54.0219171 329.945377,49.0815663 C329.954318,49.0725986 329.963272,49.0636444 329.97224,49.0547036 Z" id="Rectangle_54" fill-opacity="0.02" fill="#F8F9F9" fill-rule="nonzero"></path>
        <path d="M1100.97224,179.054704 L1249.58157,30.8916516 C1254.51141,25.9766082 1262.48859,25.9766082 1267.41843,30.8916516 L1416.02776,179.054704 C1420.96811,183.980218 1420.98014,191.978083 1416.05462,196.918434 C1416.04568,196.927401 1416.03673,196.936356 1416.02776,196.945296 L1267.41843,345.108348 C1262.48859,350.023392 1254.51141,350.023392 1249.58157,345.108348 L1100.97224,196.945296 C1096.03189,192.019782 1096.01986,184.021917 1100.94538,179.081566 C1100.95432,179.072599 1100.96327,179.063644 1100.97224,179.054704 Z" id="Rectangle_54备份" fill-opacity="0.02" fill="#F8F9F9" fill-rule="nonzero"></path>
        <path d="M18.9318751,439.068125 L167.068125,290.931875 C172.001063,285.998937 179.998937,285.998937 184.931875,290.931875 L333.068125,439.068125 C338.001063,444.001063 338.001063,451.998937 333.068125,456.931875 L184.931875,605.068125 C179.998937,610.001063 172.001063,610.001063 167.068125,605.068125 L18.9318751,456.931875 C13.9989367,451.998937 13.9989367,444.001063 18.9318751,439.068125 Z" id="Rectangle_55" fill-opacity="0.02" fill="#F8F9F9" fill-rule="nonzero"></path>
        <path d="M783.931875,656.068125 L932.068125,507.931875 C937.001063,502.998937 944.998937,502.998937 949.931875,507.931875 L1098.06812,656.068125 C1103.00106,661.001063 1103.00106,668.998937 1098.06812,673.931875 L949.931875,822.068125 C944.998937,827.001063 937.001063,827.001063 932.068125,822.068125 L783.931875,673.931875 C778.998937,668.998937 778.998937,661.001063 783.931875,656.068125 Z" id="Rectangle_55备份" fill-opacity="0.02" fill="#F8F9F9" fill-rule="nonzero"></path>
    </g>
</svg>