<svg height="900" viewBox="0 0 1440 900" width="1440" xmlns="http://www.w3.org/2000/svg"><g fill="none" fill-rule="evenodd"><path d="m0 0h1440v900h-1440z" fill="#121212"/><g fill="#f8f9f9" fill-opacity=".02" fill-rule="nonzero"><path d="m404.25-55c46.018151-45.879958 120.481849-45.879958 166.5 0 45.839634 45.70197768 45.951227 119.9111165.249249 165.750751-.082958.083208-.166041.166291-.249249.249249-46.018151 45.879958-120.481849 45.879958-166.5 0-45.839634-45.7019777-45.951227-119.91111651-.249249-165.7507508.082958-.0832079.166041-.1662911.249249-.2492492z"/><path d="m1101.25 358c46.01815-45.879958 120.48185-45.879958 166.5 0 45.83963 45.701978 45.95123 119.911117.24925 165.750751-.08296.083208-.16604.166291-.24925.249249-46.01815 45.879958-120.48185 45.879958-166.5 0-45.83963-45.701978-45.95123-119.911117-.24925-165.750751.08296-.083208.16604-.166291.24925-.249249z"/><path d="m1175.25-75c46.01815-45.879958 120.48185-45.879958 166.5 0 45.83963 45.7019777 45.95123 119.9111165.24925 165.7507508-.08296.0832079-.16604.1662911-.24925.2492492-46.01815 45.879958-120.48185 45.879958-166.5 0-45.83963-45.7019777-45.95123-119.9111165-.24925-165.7507508.08296-.0832079.16604-.1662911.24925-.2492492z"/><path d="m93 315c45.839634-45.839634 120.160366-45.839634 166 0s45.839634 120.160366 0 166-120.160366 45.839634-166 0c-45.8396342-45.839634-45.8396342-120.160366 0-166z"/><path d="m858 582c45.839634-45.839634 120.160366-45.839634 166 0 45.83963 45.839634 45.83963 120.160366 0 166-45.839634 45.839634-120.160366 45.839634-166 0s-45.839634-120.160366 0-166z"/></g></g></svg>