<svg height="900" viewBox="0 0 1440 900" width="1440" xmlns="http://www.w3.org/2000/svg"><g fill="none" fill-rule="evenodd"><path d="m0 0h1440v900h-1440z" fill="#121212"/><g fill="#f8f9f9" fill-opacity=".02" fill-rule="nonzero"><path d="m329.97224 49.0547036 148.609326-148.163052c4.929848-4.9150436 12.90702-4.9150436 17.836868 0l148.609326 148.163052c4.940351 4.9255149 4.952378 12.9233793.026863 17.8637301-.008941.0089677-.017895.0179219-.026863.0268627l-148.609326 148.1630516c-4.929848 4.915044-12.90702 4.915044-17.836868 0l-148.609326-148.1630516c-4.940351-4.9255149-4.952378-12.9233793-.026863-17.8637301.008941-.0089677.017895-.0179219.026863-.0268627z"/><path d="m1100.97224 179.054704 148.60933-148.1630524c4.92984-4.9150434 12.90702-4.9150434 17.83686 0l148.60933 148.1630524c4.94035 4.925514 4.95238 12.923379.02686 17.86373-.00894.008967-.01789.017922-.02686.026862l-148.60933 148.163052c-4.92984 4.915044-12.90702 4.915044-17.83686 0l-148.60933-148.163052c-4.94035-4.925514-4.95238-12.923379-.02686-17.86373.00894-.008967.01789-.017922.02686-.026862z"/><path d="m18.9318751 439.068125 148.1362499-148.13625c4.932938-4.932938 12.930812-4.932938 17.86375 0l148.13625 148.13625c4.932938 4.932938 4.932938 12.930812 0 17.86375l-148.13625 148.13625c-4.932938 4.932938-12.930812 4.932938-17.86375 0l-148.1362499-148.13625c-4.9329384-4.932938-4.9329384-12.930812 0-17.86375z"/><path d="m783.931875 656.068125 148.13625-148.13625c4.932938-4.932938 12.930812-4.932938 17.86375 0l148.136245 148.13625c4.93294 4.932938 4.93294 12.930812 0 17.86375l-148.136245 148.13625c-4.932938 4.932938-12.930812 4.932938-17.86375 0l-148.13625-148.13625c-4.932938-4.932938-4.932938-12.930812 0-17.86375z"/></g></g></svg>