<svg height="32" viewBox="0 0 32 32" width="32" xmlns="http://www.w3.org/2000/svg"><g fill="none" fill-rule="evenodd"><path d="m0 0h32v32h-32z"/><path d="m10.3764415 8.19289322c.3905243.39052429.3905243 1.02368927 0 1.41421356l-5.3914415 5.39189322 24.441694.001c.5522848 0 1 .4477153 1 1s-.4477152 1-1 1l-24.429694-.001 5.3794415 5.3791746c.3905243.3905243.3905243 1.0236893 0 1.4142136-.39052429.3905242-1.02368927.3905242-1.41421357 0l-7.07106781-7.0710679c-.18024198-.1802419-.27729535-.4121707-.29116012-.6480754v-.1612085c.01386477-.2359046.11091814-.4678334.29116012-.6480754l7.07106781-7.07106778c.3905243-.39052429 1.02368928-.39052429 1.41421357 0z" fill="#000" transform="matrix(-1 0 0 -1 32.026694 31.985282)"/></g></svg>