<svg height="32" viewBox="0 0 32 32" width="32" xmlns="http://www.w3.org/2000/svg"><g fill="none" fill-rule="evenodd"><path d="m0 0h32v32h-32z"/><path d="m10.1923882 8.19289322c.3905242.39052429.3905242 1.02368927 0 1.41421356l-5.39144154 5.39189322 24.44169404.001c.5522847 0 1 .4477153 1 1s-.4477153 1-1 1l-24.42969404-.001 5.37944154 5.3791746c.3905242.3905243.3905242 1.0236893 0 1.4142136-.39052434.3905242-1.02368932.3905242-1.41421361 0l-7.07106781-7.0710679c-.18024198-.1802419-.27729535-.4121707-.29116012-.6480754v-.1612085c.01386477-.2359046.11091814-.4678334.29116012-.6480754l7.07106781-7.07106778c.39052429-.39052429 1.02368927-.39052429 1.41421361 0z" fill="#000"/></g></svg>